# xmcd
#
# Track frame offsets:
#	150
#	38285
#	60604
#	92779
#	133435
#	164601
#	200530
#
# Disc length: 2829 seconds
#
# Revision: 1
# Processed by: cddbd v1.5.2PL0 Copyright (c) Steve Scherf et al.
# Submitted via: audiograbber 1.83.01
#
DISCID=5f0b0b07
DTITLE=Grateful Dead - 72-07-18 Roosevelt Stadium, Jersey City NJ
DYEAR=1900
DGENRE=
TTITLE0=Ramble On Rose
TTITLE1=Greatest Story Ever Told
TTITLE2=Mississippi Half-Step
TTITLE3=Sing Me Back Home
TTITLE4=Not Fade Away
TTITLE5=Going Down The Road Feeling Bad
TTITLE6=Not Fade Away
EXTD=
EXTT0=
EXTT1=
EXTT2=
EXTT3=
EXTT4=
EXTT5=
EXTT6=
PLAYORDER=
